<svg width="63" height="63" fill="none" xmlns="http://www.w3.org/2000/svg"><path d="M42 0H21C9.402 0 0 9.402 0 21v21c0 11.598 9.402 21 21 21h21c11.598 0 21-9.402 21-21V21C63 9.402 53.598 0 42 0z" fill="#41B178" fill-opacity=".1"/><mask id="a" fill="#fff"><rect x="24.244" y="17" width="19.666" height="23.599" rx="2.045"/></mask><rect x="24.244" y="17" width="19.666" height="23.599" rx="2.045" stroke="#00211D" stroke-width="5.455" mask="url(#a)"/><path fill-rule="evenodd" clip-rule="evenodd" d="M21.622 24.866H19v18.932c0 1.13.916 2.045 2.046 2.045h.576V24.866zm18.355 18.355H21.622v2.622h18.355v-2.622z" fill="#00211D"/></svg>