<svg width="63" height="63" viewBox="0 0 63 63" fill="none" xmlns="http://www.w3.org/2000/svg">
<path d="M42 0H21C9.402 0 0 9.402 0 21V42C0 53.598 9.402 63 21 63H42C53.598 63 63 53.598 63 42V21C63 9.402 53.598 0 42 0Z" fill="#41B178" fill-opacity="0.1"/>
<path d="M28.6418 18.4912L20.0905 25.0123H15.9687C14.8613 25.0123 14 25.8736 14 26.981V36.209C14 37.3164 14.8613 38.1777 15.9687 38.1777H20.0905L28.6418 44.6988C30.1183 45.8677 32.2715 44.7603 32.2715 42.9147V20.2753C32.2715 18.3681 30.1183 17.3223 28.6418 18.4912Z" fill="#00211D"/>
<path d="M48.3901 37.748H38.6083C37.9931 37.748 37.501 38.2402 37.501 38.8554V40.578C37.501 41.1932 37.9931 41.6853 38.6083 41.6853H48.3286C48.9438 41.6853 49.4359 41.1932 49.4359 40.578V38.8554C49.4974 38.3017 49.0053 37.748 48.3901 37.748Z" fill="#00211D"/>
<path d="M48.8207 25.8745H45.1294V22.1833C45.1294 21.5681 44.6373 21.0759 44.0221 21.0759H42.2995C41.6843 21.0759 41.1921 21.5681 41.1921 22.1833V25.8745H37.5009C36.8857 25.8745 36.3936 26.3667 36.3936 26.9819V28.7044C36.3936 29.3196 36.8857 29.8118 37.5009 29.8118H41.1921V33.503C41.1921 34.1182 41.6843 34.6104 42.2995 34.6104H44.0221C44.6373 34.6104 45.1294 34.1182 45.1294 33.503V29.8118H48.8207C49.4359 29.8118 49.928 29.3196 49.928 28.7044V26.9819C49.928 26.4282 49.4359 25.8745 48.8207 25.8745Z" fill="#00211D"/>
</svg>
