<svg width="63" height="63" fill="none" xmlns="http://www.w3.org/2000/svg"><path d="M42 0H21C9.402 0 0 9.402 0 21v21c0 11.598 9.402 21 21 21h21c11.598 0 21-9.402 21-21V21C63 9.402 53.598 0 42 0z" fill="#41B178" fill-opacity=".1"/><path d="M32 15c-9.39 0-17 7.61-17 17s7.61 17 17 17c9.389 0 17-7.61 17-17s-7.611-17-17-17zm7.23 9.809l-1.663 2.648c-.13.207-.367.242-.581.164-.802-.293-2.734-.92-4.595-.92-1.063 0-2.848.2-2.848 1.531 0 .367 0 1.226 3.109 2.006 4.164 1.046 6.275 2.906 6.275 5.531 0 2.15-1.681 4.44-5.322 5.053v2.444c0 .296-.15.446-.446.446h-2.316c-.296 0-.446-.15-.446-.446v-2.338c-2.418-.204-4.583-.946-5.439-1.272-.213-.08-.317-.258-.188-.464l1.66-2.65c.129-.206.365-.242.58-.164.803.294 2.737.921 4.6.921 1.064 0 2.848-.199 2.848-1.53 0-.367 0-1.227-3.109-2.007-4.164-1.045-6.275-2.905-6.275-5.53 0-2.15 1.682-4.44 5.323-5.053v-2.445c0-.295.15-.445.446-.445h2.316c.295 0 .446.15.446.445v2.34c2.417.203 4.583.945 5.438 1.27.212.082.316.258.187.465z" fill="#000"/></svg>