<svg width="63" height="63" viewBox="0 0 63 63" fill="none" xmlns="http://www.w3.org/2000/svg">
<path d="M42 0H21C9.40202 0 0 9.40202 0 21V42C0 53.598 9.40202 63 21 63H42C53.598 63 63 53.598 63 42V21C63 9.40202 53.598 0 42 0Z" fill="#41B178" fill-opacity="0.1"/>
<path d="M40.5625 40.2165V45.125H14.3125V40.2165C14.3808 40.1478 14.4585 40.0722 14.5458 39.9906C15.0191 39.5481 15.7728 38.9314 16.8417 38.3057C18.9666 37.0618 22.3911 35.75 27.4375 35.75C32.4839 35.75 35.9084 37.0618 38.0333 38.3057C39.1022 38.9314 39.8559 39.5481 40.3293 39.9906C40.4165 40.0722 40.4942 40.1478 40.5625 40.2165Z" stroke="#00211D" stroke-width="3.75"/>
<circle cx="27.4375" cy="24.5" r="5.625" stroke="#00211D" stroke-width="3.75"/>
<path fill-rule="evenodd" clip-rule="evenodd" d="M47.5938 36.6875C51.9948 36.6875 55.5625 33.1198 55.5625 28.7188C55.5625 24.3177 51.9948 20.75 47.5938 20.75C43.1927 20.75 39.625 24.3177 39.625 28.7188C39.625 33.1198 43.1927 36.6875 47.5938 36.6875ZM43.4152 30.4812L45.708 32.6673C45.9212 32.8806 46.2411 32.9872 46.5077 32.9339C46.881 32.9339 47.2009 32.8273 47.4142 32.5607L48.7472 31.0677C49.9202 29.8414 51.0399 28.5617 52.1596 27.282C52.4795 26.9088 52.5862 26.4289 52.3729 26.0024C51.9997 25.2559 50.9866 25.0426 50.4001 25.6825C49.5323 26.6949 48.6399 27.6828 47.7397 28.6795C47.3125 29.1525 46.8834 29.6275 46.4544 30.108C45.9746 29.6281 45.548 29.2015 45.0681 28.775C44.5349 28.1885 43.4685 28.4551 43.1486 29.2015C42.9353 29.6814 43.042 30.1613 43.4152 30.4812Z" fill="#00211D"/>
</svg>
