<svg width="63" height="63" viewBox="0 0 63 63" fill="none" xmlns="http://www.w3.org/2000/svg">
<path d="M42 0H21C9.40202 0 0 9.40202 0 21V42C0 53.598 9.40202 63 21 63H42C53.598 63 63 53.598 63 42V21C63 9.40202 53.598 0 42 0Z" fill="#41B178" fill-opacity="0.1"/>
<circle cx="27.8183" cy="24.909" r="6.90909" fill="#00211D"/>
<path fill-rule="evenodd" clip-rule="evenodd" d="M41.6364 39.5909V45.6363H27.8558C27.8433 45.6363 27.8307 45.6363 27.8182 45.6363C27.8056 45.6363 27.7931 45.6363 27.7806 45.6363H14V39.5909C14 39.5909 14 39.5908 14 39.5908C14 36.252 20.1866 33.5454 27.8182 33.5454C35.4497 33.5454 41.6363 36.252 41.6364 39.5908C41.6364 39.5908 41.6364 39.5909 41.6364 39.5909Z" fill="#00211D"/>
<circle cx="45" cy="28" r="7" fill="#00211D"/>
<path fill-rule="evenodd" clip-rule="evenodd" d="M48.4118 25.9118L47.0471 24.5471L45 26.5943L42.9528 24.5472L41.5881 25.9119L43.6353 27.959L41.5885 30.0058L42.9531 31.3705L45 29.3237L47.0468 31.3705L48.4115 30.0059L46.3646 27.959L48.4118 25.9118Z" fill="white"/>
</svg>
