<svg width="63" height="63" viewBox="0 0 63 63" fill="none" xmlns="http://www.w3.org/2000/svg">
<path d="M42 0H21C9.40202 0 0 9.40202 0 21V42C0 53.598 9.40202 63 21 63H42C53.598 63 63 53.598 63 42V21C63 9.40202 53.598 0 42 0Z" fill="#41B178" fill-opacity="0.1"/>
<path fill-rule="evenodd" clip-rule="evenodd" d="M31.4884 42C36.6876 41.9924 41.0001 38.2075 41.8292 33.2427C41.9884 32.2893 42.756 31.5 43.7228 31.5C44.6896 31.5 45.4845 32.2871 45.3654 33.2463C44.7863 37.8948 41.9298 41.8359 37.9464 43.9167L37.9572 43.9275C37.6496 44.0872 37.3351 44.2361 37.0158 44.3733C36.7648 44.4807 36.5119 44.5808 36.254 44.6736C34.5929 45.2725 33.254 46.7168 33.254 48.4824V49H33.2228H29.754H29.7228V48.4824C29.7228 46.7168 28.3839 45.2725 26.7228 44.6736C26.465 44.5808 26.2121 44.4807 25.9611 44.3733C25.8078 44.3076 25.6564 44.2393 25.506 44.1682C25.3419 44.0911 25.1798 44.0107 25.0197 43.9275L25.0304 43.9167C21.047 41.8359 18.1906 37.8948 17.6115 33.2463C17.4923 32.2871 18.2873 31.5 19.254 31.5C20.2208 31.5 20.9884 32.2893 21.1476 33.2427C21.9767 38.2075 26.2892 41.9924 31.4884 42Z" fill="#00211D"/>
<rect x="24.5996" y="14" width="14" height="24.5" rx="7" fill="#00211D"/>
</svg>
