<svg width="63" height="63" viewBox="0 0 63 63" fill="none" xmlns="http://www.w3.org/2000/svg">
<path d="M42 0H21C9.402 0 0 9.402 0 21V42C0 53.598 9.402 63 21 63H42C53.598 63 63 53.598 63 42V21C63 9.402 53.598 0 42 0Z" fill="#41B178" fill-opacity="0.1"/>
<path d="M41.7632 34.3459C41.7175 34.209 41.6719 34.0721 41.6719 33.9352V29.5084C41.6719 26.8615 40.6223 24.3059 38.7512 22.4348C37.9297 21.6133 37.017 20.9744 36.013 20.518V20.3355C36.013 17.9167 34.0506 16 31.6775 16C29.2587 16 27.342 17.9624 27.342 20.3355V20.518C23.9193 22.1153 21.6831 25.6293 21.6831 29.4628V33.8896C21.6831 34.0265 21.6374 34.209 21.6831 34.209L18.9905 39.9136C18.808 40.3243 18.808 40.8263 19.0818 41.2371C19.3556 41.6478 19.7663 41.876 20.2683 41.876H25.5622C25.6078 45.2074 28.3004 47.9 31.6775 47.9C35.0546 47.9 37.7472 45.2074 37.8384 41.876H43.1323C43.5886 41.876 44.045 41.6478 44.3188 41.2371C44.5927 40.8263 44.5927 40.3243 44.4101 39.9136L41.7632 34.3459ZM31.6775 45.1162C29.852 45.1162 28.346 43.6558 28.2547 41.8303H35.0546C35.009 43.7014 33.503 45.1162 31.6775 45.1162ZM22.4133 39.0921L24.2387 35.2587C24.3756 34.8479 24.4669 34.3916 24.4669 33.8896V29.4628C24.4669 26.4508 26.3836 23.7126 29.2131 22.7086C29.7607 22.526 30.1258 21.9784 30.1258 21.4308V20.3355C30.1258 19.4684 30.856 18.7382 31.7231 18.7382C32.5902 18.7382 33.2748 19.4684 33.2748 20.3355V21.4308C33.2748 22.024 33.6399 22.526 34.1875 22.7086C35.1459 23.028 36.0586 23.6213 36.7888 24.3971C38.1579 25.7662 38.8881 27.5461 38.8881 29.5084V33.9352C38.8881 34.3916 38.9793 34.8479 39.1619 35.4412L40.9417 39.1834H22.4133V39.0921Z" fill="#00211D"/>
<path d="M12.7838 29.0064C12.7838 26.4964 13.7878 24.0777 15.5677 22.3435C16.1153 21.7959 16.1153 20.9288 15.5677 20.3811C15.02 19.8335 14.1529 19.8335 13.6053 20.3811C11.3235 22.6173 10 25.7662 10 29.0064C10 32.2923 11.2778 35.3499 13.5597 37.6774C13.8335 37.9512 14.1986 38.0881 14.518 38.0881C14.8831 38.0881 15.2026 37.9512 15.4764 37.6774C16.024 37.1298 16.024 36.2627 15.4764 35.715C13.7422 33.9352 12.7838 31.5621 12.7838 29.0064Z" fill="#00211D"/>
<path d="M19.1276 32.1553C18.3061 31.3339 17.8041 30.193 17.8041 29.0064C17.8041 27.8199 18.2605 26.7246 19.1276 25.8575C19.6752 25.3098 19.6752 24.4427 19.1276 23.8951C18.5799 23.3475 17.7128 23.3475 17.1652 23.8951C15.7961 25.2642 15.0659 27.044 15.0659 28.9608C15.0659 30.8775 15.7961 32.703 17.1652 34.0264C17.439 34.3003 17.8041 34.4372 18.1236 34.4372C18.4887 34.4372 18.8081 34.3003 19.0819 34.0264C19.6296 33.5701 19.6296 32.703 19.1276 32.1553Z" fill="#00211D"/>
<path d="M49.7496 20.3811C49.2019 19.8335 48.3348 19.8335 47.7872 20.3811C47.2396 20.9288 47.2396 21.7959 47.7872 22.3435C49.567 24.0777 50.571 26.4964 50.571 29.0064C50.571 31.5165 49.567 33.9352 47.7872 35.715C47.2396 36.2627 47.2396 37.1298 47.7872 37.6774C48.061 37.9512 48.4261 38.0881 48.7456 38.0881C49.1107 38.0881 49.4301 37.9512 49.7039 37.6774C52.0314 35.3499 53.2636 32.2923 53.2636 29.0064C53.3549 25.7662 52.0314 22.6173 49.7496 20.3811Z" fill="#00211D"/>
<path d="M46.1895 23.9408C45.6419 23.3931 44.7748 23.3931 44.2271 23.9408C43.6795 24.4884 43.6795 25.3555 44.2271 25.9031C45.0486 26.7246 45.5506 27.8655 45.5506 29.0521C45.5506 30.2386 45.0942 31.3339 44.2271 32.201C43.6795 32.7486 43.6795 33.6157 44.2271 34.1634C44.501 34.4372 44.866 34.5741 45.1855 34.5741C45.5506 34.5741 45.8701 34.4372 46.1439 34.1634C47.513 32.7943 48.2432 31.0144 48.2432 29.0977C48.2888 27.0897 47.5586 25.3099 46.1895 23.9408Z" fill="#00211D"/>
<rect x="23.4258" y="27" width="16" height="13" fill="#00211D"/>
<rect x="24.4258" y="23" width="14" height="13" fill="#00211D"/>
<rect x="28.4258" y="18" width="6.5" height="13" fill="#00211D"/>
<rect x="21.4258" y="36" width="20" height="4" fill="#00211D"/>
</svg>
