<svg width="63" height="63" fill="none" xmlns="http://www.w3.org/2000/svg"><path d="M42 0H21C9.402 0 0 9.402 0 21v21c0 11.598 9.402 21 21 21h21c11.598 0 21-9.402 21-21V21C63 9.402 53.598 0 42 0z" fill="#41B178" fill-opacity=".1"/><path d="M19.497 20.445c-2.31 2.489-3.733 4.8-3.2 5.333.356.533 3.023-1.6 5.867-4.444C25.01 18.31 26.431 16 25.542 16c-1.067 0-3.733 1.956-6.045 4.445zm12.443-2.489c0 .889.89 1.244 1.778.71 1.067-.532 1.778-1.421 1.778-1.955 0-.355-.711-.71-1.778-.71-.889 0-1.778.888-1.778 1.955zm7.112.711c-1.244 1.422-1.422 2.667-.355 2.667.888 0 2.666-1.245 3.91-2.667C43.853 17.245 44.03 16 42.964 16c-.889 0-2.666 1.245-3.911 2.667zm4.445 4.444c-1.778 1.956-2.311 3.556-1.422 3.556 2.31 0 6.755-5.156 5.51-6.222-.533-.534-2.31.71-4.088 2.666zM26.607 24c-2.666 3.2-1.778 8 2.311 10.489 6.045 3.911 12.978-4.8 8.356-10.489-2.845-3.378-7.822-3.378-10.667 0zm-8.887 7.111c-3.556 4.267-1.068 4.978 2.666.89 1.777-1.956 2.31-3.556 1.422-3.556-1.067 0-2.845 1.244-4.089 2.666zM43.498 32c-1.778 1.955-2.845 3.91-2.311 4.444.533.534 2.31-.71 4.088-2.666s2.845-3.912 2.312-4.445c-.534-.533-2.312.711-4.09 2.667zM21.63 40.178c-2.133 1.422-3.911 3.91-3.911 5.333C17.719 47.467 20.74 48 31.94 48s14.222-.533 14.222-2.489c0-7.11-16.711-10.844-24.533-5.333z" fill="#00211D"/></svg>