<svg width="63" height="63" viewBox="0 0 63 63" fill="none" xmlns="http://www.w3.org/2000/svg">
<path d="M42 0H21C9.402 0 0 9.402 0 21V42C0 53.598 9.402 63 21 63H42C53.598 63 63 53.598 63 42V21C63 9.402 53.598 0 42 0Z" fill="#41B178" fill-opacity="0.1"/>
<path d="M45.714 18.6948L38.491 25.9178L40.9931 28.4198C41.9845 29.4112 41.2764 31.1107 39.8758 31.1107H32.6686C31.8031 31.1107 31.095 30.4026 31.095 29.5371V22.2984C31.095 20.8979 32.7945 20.1898 33.7859 21.1812L36.288 23.6832L43.5109 16.4603C44.1246 15.8466 45.116 15.8466 45.7297 16.4603C46.3277 17.0897 46.3277 18.0811 45.714 18.6948ZM18.6948 45.714L25.9178 38.491L28.4198 40.9931C29.4112 41.9845 31.1107 41.2764 31.1107 39.8758V32.6686C31.1107 31.8031 30.4026 31.095 29.5371 31.095H22.2984C20.8979 31.095 20.1898 32.7945 21.1812 33.7859L23.6832 36.288L16.4603 43.5109C15.8466 44.1246 15.8466 45.116 16.4603 45.7297C17.0897 46.3277 18.0811 46.3277 18.6948 45.714Z" fill="#00211D"/>
</svg>
