<svg width="63" height="63" fill="none" xmlns="http://www.w3.org/2000/svg"><path d="M42 0H21C9.402 0 0 9.402 0 21v21c0 11.598 9.402 21 21 21h21c11.598 0 21-9.402 21-21V21C63 9.402 53.598 0 42 0z" fill="#41B178" fill-opacity=".1"/><path d="M16 47.517V37.6l6.4 4-6.059 6.059a.2.2 0 01-.341-.142z" fill="#00211D"/><rect x="16" y="16" width="32" height="25.6" rx="5" fill="#00211D"/><path fill-rule="evenodd" clip-rule="evenodd" d="M35.965 23.63c0-.9-.73-1.63-1.63-1.63h-4.238c-.9 0-1.63.73-1.63 1.63v4.905L27 30.802v1.467h4.4v3.748l.696.732a.163.163 0 00.236 0l.697-.731v-3.75h4.402v-1.466l-1.467-2.267V23.63z" fill="#FEFFFF"/></svg>