<svg width="63" height="63" fill="none" xmlns="http://www.w3.org/2000/svg"><path d="M21 15.75h5.25v3.5h-3.5v7h-3.5V17.5c0-.966.784-1.75 1.75-1.75z" fill="#00211D"/><path d="M42 0H21C9.402 0 0 9.402 0 21v21c0 11.598 9.402 21 21 21h21c11.598 0 21-9.402 21-21V21C63 9.402 53.598 0 42 0z" fill="#41B178" fill-opacity=".1"/><path fill-rule="evenodd" clip-rule="evenodd" d="M31.88 14.042a1.75 1.75 0 00-2.13 1.708v31.5a1.75 1.75 0 002.13 1.708l15.75-3.5A1.75 1.75 0 0049 43.75v-24.5c0-.82-.57-1.53-1.37-1.708l-15.75-3.5zm3.995 20.083a2.625 2.625 0 100-5.25 2.625 2.625 0 000 5.25z" fill="#00211D"/><path d="M19.25 45.5v-8.75h3.5v7h3.5v3.5H21a1.75 1.75 0 01-1.75-1.75zm7-15.75H14v3.5h12.25v-3.5z" fill="#00211D"/></svg>