<svg width="63" height="63" viewBox="0 0 63 63" fill="none" xmlns="http://www.w3.org/2000/svg">
<path d="M42 0H21C9.40202 0 0 9.40202 0 21V42C0 53.598 9.40202 63 21 63H42C53.598 63 63 53.598 63 42V21C63 9.40202 53.598 0 42 0Z" fill="#41B178" fill-opacity="0.1"/>
<path d="M27.7552 46.3977L18.1321 36.7746C16.6226 35.2651 16.6226 33.0008 18.1321 31.4913L30.3968 19.604L42.4728 31.68C43.9823 33.1895 43.9823 35.4538 42.4728 36.9633L32.8498 46.5863C31.529 47.9072 29.2647 47.9072 27.7552 46.3977Z" stroke="#00211D" stroke-width="3.77375" stroke-miterlimit="10"/>
<path d="M51.153 45.643C51.153 47.7185 49.4548 49.4167 47.3792 49.4167C45.3037 49.4167 43.6055 47.7185 43.6055 45.643C43.6055 43.5674 47.3792 38.0955 47.3792 38.0955C47.3792 38.0955 51.153 43.5674 51.153 45.643Z" fill="#00211D"/>
<path d="M17.1895 34.3215C17.1895 35.265 17.5668 36.2084 18.1329 36.9632L27.756 46.5862C29.2655 48.0957 31.5297 48.0957 33.0392 46.5862L42.6623 36.9632C43.2283 36.2084 43.6057 35.265 43.6057 34.3215H17.1895Z" fill="#00211D"/>
<path d="M23.793 13L38.6993 27.9063" stroke="#00211D" stroke-width="3.77375" stroke-miterlimit="10"/>
</svg>
