<svg width="63" height="63" fill="none" xmlns="http://www.w3.org/2000/svg"><path d="M42 0H21C9.402 0 0 9.402 0 21v21c0 11.598 9.402 21 21 21h21c11.598 0 21-9.402 21-21V21C63 9.402 53.598 0 42 0z" fill="#41B178" fill-opacity=".1"/><path fill-rule="evenodd" clip-rule="evenodd" d="M19.664 18.35C16.356 18.783 14 21.651 14 24.988V38.01c0 3.337 2.356 6.205 5.664 6.64 3.258.429 7.547.849 11.836.849 4.289 0 8.578-.42 11.836-.85 3.308-.432 5.664-3.3 5.664-6.637V24.99c0-3.337-2.356-6.205-5.664-6.64-3.258-.429-7.547-.849-11.836-.849-4.289 0-8.578.42-11.836.85zM21 24.5a1.75 1.75 0 00-1.75 1.75v10.5c0 .967.784 1.75 1.75 1.75h7a1.75 1.75 0 001.75-1.75v-3.5h-3.5V35h-3.5v-7h3.5v1.75h3.5v-3.5A1.75 1.75 0 0028 24.5h-7zm14 0a1.75 1.75 0 00-1.75 1.75v10.5c0 .967.783 1.75 1.75 1.75h7a1.75 1.75 0 001.75-1.75v-3.5h-3.5V35h-3.5v-7h3.5v1.75h3.5v-3.5A1.75 1.75 0 0042 24.5h-7z" fill="#00211D"/></svg>