<svg width="63" height="63" viewBox="0 0 63 63" fill="none" xmlns="http://www.w3.org/2000/svg">
<path d="M42 0H21C9.40202 0 0 9.40202 0 21V42C0 53.598 9.40202 63 21 63H42C53.598 63 63 53.598 63 42V21C63 9.40202 53.598 0 42 0Z" fill="#41B178" fill-opacity="0.1"/>
<path d="M23.1833 15.9V16.0833H17.8H17.7999C16.991 16.0838 16.2581 16.7847 16.25 17.6309H16.25V17.6333V49.7C16.2501 50.5188 16.9812 51.2499 17.8 51.25H45.5333C46.3521 51.2499 47.0832 50.5188 47.0833 49.7V17.6333V17.6333C47.0832 16.8146 46.3521 16.0834 45.5334 16.0833H45.5333H40.15V15.9C40.15 15.4889 39.9866 15.0947 39.696 14.804C39.4053 14.5134 39.0111 14.35 38.6 14.35H36.0006C35.1465 12.813 33.5485 11.75 31.6667 11.75C29.7848 11.75 28.1868 12.813 27.3328 14.35H24.7333L24.7333 14.35C24.3222 14.35 23.928 14.5134 23.6374 14.804C23.3467 15.0947 23.1834 15.4889 23.1833 15.9V15.9ZM35.0244 17.45H35.025H37.05V18.6833H26.2833V17.45L28.3083 17.45L28.3089 17.45C28.6548 17.4492 28.9905 17.3328 29.2626 17.1192C29.5344 16.9059 29.7271 16.6079 29.8102 16.2726C30.0216 15.4486 30.7518 14.85 31.6667 14.85C32.5815 14.85 33.3117 15.4485 33.5232 16.2725C33.6062 16.6078 33.799 16.9059 34.0708 17.1192C34.3429 17.3328 34.6786 17.4492 35.0244 17.45ZM40.15 20.2334V19.1833H43.9833V48.15H19.35V19.1833H23.1833V20.2333V20.2334C23.1834 20.6444 23.3467 21.0386 23.6374 21.3293C23.928 21.62 24.3222 21.7833 24.7333 21.7833H24.7333H38.6C39.0111 21.7833 39.4053 21.62 39.696 21.3293C39.9866 21.0386 40.15 20.6444 40.15 20.2334Z" fill="black" stroke="black" stroke-width="0.5"/>
<path d="M29.0316 43C29.6926 43.0012 30.3472 42.8716 30.9578 42.6187C31.5684 42.3657 32.123 41.9945 32.5895 41.5264L34.1895 39.9264C34.2683 39.8476 34.3308 39.754 34.3734 39.6511C34.4161 39.5481 34.438 39.4378 34.438 39.3264C34.438 39.2149 34.4161 39.1046 34.3734 39.0016C34.3308 38.8987 34.2683 38.8052 34.1895 38.7264C34.1107 38.6476 34.0172 38.5851 33.9142 38.5424C33.8113 38.4998 33.7009 38.4778 33.5895 38.4778C33.4781 38.4778 33.3677 38.4998 33.2648 38.5424C33.1618 38.5851 33.0683 38.6476 32.9895 38.7264L31.3895 40.3264C30.7614 40.9545 29.9094 41.3074 29.0211 41.3074C28.1328 41.3074 27.2808 40.9545 26.6527 40.3264C26.0245 39.6982 25.6717 38.8463 25.6717 37.9579C25.6717 37.0696 26.0245 36.2177 26.6527 35.5895L28.2527 33.9895C28.3315 33.9107 28.394 33.8172 28.4366 33.7143C28.4793 33.6113 28.5012 33.501 28.5012 33.3895C28.5012 33.2781 28.4793 33.1678 28.4366 33.0648C28.394 32.9619 28.3315 32.8683 28.2527 32.7895C28.1739 32.7107 28.0803 32.6482 27.9774 32.6056C27.8745 32.563 27.7641 32.541 27.6527 32.541C27.5413 32.541 27.4309 32.563 27.328 32.6056C27.225 32.6482 27.1315 32.7107 27.0527 32.7895L25.4737 34.4106C24.7701 35.1143 24.2908 36.0108 24.0967 36.9868C23.9025 37.9629 24.0022 38.9746 24.383 39.894C24.7638 40.8134 25.4088 41.5992 26.2362 42.1521C27.0637 42.705 28.0365 43 29.0316 43V43Z" fill="black"/>
<path d="M31.41 28.4737L29.8101 30.0737C29.6509 30.2328 29.5615 30.4487 29.5615 30.6737C29.5615 30.8988 29.6509 31.1146 29.8101 31.2737C29.9692 31.4328 30.185 31.5222 30.41 31.5222C30.6351 31.5222 30.8509 31.4328 31.01 31.2737L32.61 29.6737C33.2382 29.0456 34.0901 28.6927 34.9785 28.6927C35.4183 28.6927 35.8539 28.7793 36.2602 28.9477C36.6666 29.116 37.0358 29.3627 37.3469 29.6737C37.6579 29.9847 37.9046 30.354 38.0729 30.7604C38.2413 31.1667 38.3279 31.6023 38.3279 32.0421C38.3279 32.482 38.2413 32.9175 38.0729 33.3239C37.9046 33.7303 37.6579 34.0995 37.3469 34.4105L35.7258 36.0316C35.647 36.1104 35.5845 36.2039 35.5419 36.3069C35.4992 36.4098 35.4773 36.5202 35.4773 36.6316C35.4773 36.743 35.4992 36.8534 35.5419 36.9563C35.5845 37.0593 35.647 37.1528 35.7258 37.2316C35.885 37.3907 36.1008 37.4801 36.3258 37.4801C36.4373 37.4801 36.5476 37.4582 36.6505 37.4155C36.7535 37.3729 36.847 37.3104 36.9258 37.2316L38.5258 35.5895C39.4694 34.6459 39.9995 33.3661 39.9995 32.0316C39.9995 30.6971 39.4694 29.4173 38.5258 28.4737C37.5822 27.5301 36.3024 27 34.9679 27C33.6335 27 32.3537 27.5301 31.41 28.4737Z" fill="black"/>
<path d="M29.1157 37.8842C29.1941 37.9637 29.2875 38.0269 29.3905 38.0701C29.4935 38.1132 29.604 38.1354 29.7157 38.1354C29.8274 38.1354 29.9379 38.1132 30.041 38.0701C30.144 38.0269 30.2374 37.9637 30.3157 37.8842L34.8841 33.2947C35.0433 33.1356 35.1327 32.9198 35.1327 32.6947C35.1327 32.4697 35.0433 32.2538 34.8841 32.0947C34.725 31.9356 34.5092 31.8462 34.2841 31.8462C34.0591 31.8462 33.8433 31.9356 33.6841 32.0947L29.1157 36.7052C28.9614 36.8626 28.875 37.0743 28.875 37.2947C28.875 37.5151 28.9614 37.7268 29.1157 37.8842V37.8842Z" fill="black"/>
</svg>
