<svg width="55" height="55" fill="none" xmlns="http://www.w3.org/2000/svg"><g clip-path="url(#clip0)"><path d="M36.572.297H18.664C8.774.297.756 8.315.756 18.206v17.908c0 9.89 8.018 17.908 17.908 17.908h17.908c9.891 0 17.909-8.018 17.909-17.908V18.206C54.48 8.315 46.463.297 36.572.297z" fill="#41B178" fill-opacity=".1"/><path d="M23.172 13.942c-5.03 1.863-7.92 6.707-7.92 12.384 0 7.29 5.91 13.199 13.2 13.199 5.677 0 10.52-2.89 12.384-7.919-1.503.605-3.144.914-4.863.914-7.205 0-13.715-6.51-13.715-13.715 0-1.72.309-3.36.914-4.863z" fill="#00211D"/></g><defs><clipPath id="clip0"><path fill="#fff" transform="translate(.756 .297)" d="M0 0h53.725v53.725H0z"/></clipPath></defs></svg>