<svg width="63" height="63" fill="none" xmlns="http://www.w3.org/2000/svg"><path d="M42 0H21C9.402 0 0 9.402 0 21v21c0 11.598 9.402 21 21 21h21c11.598 0 21-9.402 21-21V21C63 9.402 53.598 0 42 0z" fill="#41B178" fill-opacity=".1"/><path d="M44.656 16H17.523A4.521 4.521 0 0013 20.52v21.707a4.521 4.521 0 004.52 4.523h27.133a4.522 4.522 0 004.523-4.523V20.52a4.52 4.52 0 00-4.52-4.52zm-.906 27.133H18.427a1.81 1.81 0 01-1.81-1.81V23.235H45.56v18.088a1.81 1.81 0 01-1.81 1.81z" fill="#00211D"/><path d="M34.34 34.804a5.489 5.489 0 10-1.689 1.554l4.047 4.023a1.149 1.149 0 101.624-1.624l-3.983-3.953zm-4.484.375a3.54 3.54 0 11-.007-7.081 3.54 3.54 0 01.01 7.08h-.003z" fill="#00211D"/><circle cx="17.909" cy="20.393" r="1.292" fill="#D5E1DB"/><circle cx="21.527" cy="20.393" r="1.292" fill="#D5E1DB"/><circle cx="25.145" cy="20.393" r="1.292" fill="#D5E1DB"/></svg>