<svg width="48" height="48" viewBox="0 0 48 48" fill="none" xmlns="http://www.w3.org/2000/svg">
<path d="M24 0C10.7629 0 0 10.7631 0 24C0 37.2372 10.7629 48 24 48C37.2371 48 48 37.2372 48 24C48 10.7631 37.2371 0 24 0ZM24 3C35.6157 3 45 12.3843 45 24C45 35.6157 35.6157 45 24 45C12.3843 45 3 35.6157 3 24C3 12.3843 12.3843 3 24 3ZM15 12.0059C13.9636 12.0059 12.9272 12.2732 12 12.8086C10.1457 13.879 9 15.8589 9 18C8.99692 18.197 9.03267 18.3926 9.1052 18.5758C9.17774 18.759 9.28564 18.9261 9.42276 19.0675C9.55987 19.209 9.7235 19.3221 9.90432 19.4003C10.0851 19.4785 10.2796 19.5204 10.4766 19.5234C10.6775 19.5266 10.877 19.4893 11.0633 19.4139C11.2495 19.3384 11.4187 19.2263 11.5608 19.0842C11.7029 18.9421 11.815 18.7729 11.8904 18.5867C11.9659 18.4004 12.0031 18.2009 12 18C12 16.926 12.5697 15.9413 13.5 15.4043C14.4303 14.8673 15.5697 14.8673 16.5 15.4043C17.4303 15.9413 18 16.926 18 18C17.9972 18.1988 18.0339 18.3961 18.108 18.5806C18.1822 18.765 18.2922 18.9329 18.4318 19.0745C18.5713 19.216 18.7376 19.3284 18.921 19.4051C19.1044 19.4819 19.3012 19.5214 19.5 19.5214C19.6988 19.5214 19.8956 19.4819 20.079 19.4051C20.2624 19.3284 20.4287 19.216 20.5682 19.0745C20.7078 18.9329 20.8178 18.765 20.892 18.5806C20.9661 18.3961 21.0028 18.1988 21 18C21 15.8589 19.8543 13.879 18 12.8086C17.0728 12.2732 16.0364 12.0059 15 12.0059ZM33 12.0059C31.9636 12.0059 30.9272 12.2732 30 12.8086C28.1457 13.879 27 15.8589 27 18C26.9969 18.197 27.0327 18.3926 27.1052 18.5758C27.1777 18.759 27.2856 18.9261 27.4228 19.0675C27.5599 19.209 27.7235 19.3221 27.9043 19.4003C28.0851 19.4785 28.2796 19.5204 28.4766 19.5234C28.6775 19.5266 28.877 19.4893 29.0633 19.4139C29.2495 19.3384 29.4187 19.2263 29.5608 19.0842C29.7029 18.9421 29.815 18.7729 29.8904 18.5867C29.9659 18.4004 30.0031 18.2009 30 18C30 16.926 30.5697 15.9413 31.5 15.4043C32.4303 14.8673 33.5697 14.8673 34.5 15.4043C35.4303 15.9413 36 16.926 36 18C35.9972 18.1988 36.0339 18.3961 36.108 18.5806C36.1822 18.765 36.2922 18.9329 36.4318 19.0745C36.5713 19.216 36.7376 19.3284 36.921 19.4051C37.1044 19.4819 37.3012 19.5214 37.5 19.5214C37.6988 19.5214 37.8956 19.4819 38.079 19.4051C38.2624 19.3284 38.4287 19.216 38.5682 19.0745C38.7078 18.9329 38.8178 18.765 38.892 18.5806C38.9661 18.3961 39.0028 18.1988 39 18C39 15.8589 37.8543 13.879 36 12.8086C35.0728 12.2732 34.0364 12.0059 33 12.0059ZM12 27C11.9996 29.1068 12.5539 31.1766 13.6071 33.0013C14.6604 34.8259 16.1754 36.3411 18 37.3945C19.8242 38.4477 21.8936 39.0022 24 39.0022C26.1064 39.0022 28.1758 38.4477 30 37.3945C31.8246 36.3411 33.3396 34.8259 34.3929 33.0013C35.4461 31.1766 36.0004 29.1068 36 27H12Z" fill="white"/>
</svg>
