<svg width="112" height="94" fill="none" xmlns="http://www.w3.org/2000/svg"><path fill-rule="evenodd" clip-rule="evenodd" d="M39.2 83.935c1.542.102 2.8 1.346 2.8 2.893v4.404c0 1.944 1.94 3.292 3.745 2.57C73.713 82.615 84 66.173 84 42.015 84 18.81 65.196 0 42 0S0 18.81 0 42.014c0 22.262 17.31 40.48 39.2 41.921zm68.748-59.501c1.862-.931 4.052.423 4.052 2.505v30.15c0 2.081-2.19 3.436-4.052 2.504l-16.8-8.403a2.801 2.801 0 01-1.548-2.505V35.342c0-1.06.6-2.031 1.548-2.505l16.8-8.403zM28 42.014a5.6 5.6 0 11-11.2 0 5.6 5.6 0 1111.2 0zm19.6 0a5.6 5.6 0 11-11.2 0 5.6 5.6 0 1111.2 0zm19.6 0a5.6 5.6 0 11-11.2 0 5.6 5.6 0 1111.2 0z" fill="#00211D"/></svg>