<svg width="63" height="63" viewBox="0 0 63 63" fill="none" xmlns="http://www.w3.org/2000/svg">
<path d="M42 0H21C9.402 0 0 9.402 0 21V42C0 53.598 9.402 63 21 63H42C53.598 63 63 53.598 63 42V21C63 9.402 53.598 0 42 0Z" fill="#41B178" fill-opacity="0.1"/>
<mask id="path-2-outside-1_1835_76" maskUnits="userSpaceOnUse" x="13" y="17" width="36" height="30" fill="black">
<rect fill="white" x="13" y="17" width="36" height="30"/>
<path fill-rule="evenodd" clip-rule="evenodd" d="M19.7397 18H17.1111C15.3844 18 14 19.3844 14 21.1111V42.8889C14 44.6156 15.3844 46 17.1111 46H45.1111C45.8507 46 46.5275 45.746 47.0596 45.3199L44.6597 42.92H17.1111V21.08H22.8197L19.7397 18ZM45.1111 38.6281V21.08H27.5631L24.4831 18H45.1111C46.8378 18 48.2222 19.3844 48.2222 21.1111V41.7392L45.1111 38.6281ZM29.3143 27.5746L24.8889 32H28V38.2222H34.2222V32.4825L29.3143 27.5746Z"/>
</mask>
<path fill-rule="evenodd" clip-rule="evenodd" d="M19.7397 18H17.1111C15.3844 18 14 19.3844 14 21.1111V42.8889C14 44.6156 15.3844 46 17.1111 46H45.1111C45.8507 46 46.5275 45.746 47.0596 45.3199L44.6597 42.92H17.1111V21.08H22.8197L19.7397 18ZM45.1111 38.6281V21.08H27.5631L24.4831 18H45.1111C46.8378 18 48.2222 19.3844 48.2222 21.1111V41.7392L45.1111 38.6281ZM29.3143 27.5746L24.8889 32H28V38.2222H34.2222V32.4825L29.3143 27.5746Z" fill="#00211D"/>
<path d="M19.7397 18L20.0933 17.6464L19.9469 17.5H19.7397V18ZM47.0596 45.3199L47.3722 45.7102L47.808 45.3611L47.4132 44.9663L47.0596 45.3199ZM44.6597 42.92L45.0133 42.5664L44.8669 42.42H44.6597V42.92ZM17.1111 42.92H16.6111V43.42H17.1111V42.92ZM17.1111 21.08V20.58H16.6111V21.08H17.1111ZM22.8197 21.08V21.58H24.0269L23.1733 20.7264L22.8197 21.08ZM45.1111 21.08H45.6111V20.58H45.1111V21.08ZM45.1111 38.6281H44.6111V38.8352L44.7576 38.9816L45.1111 38.6281ZM27.5631 21.08L27.2095 21.4336L27.3559 21.58H27.5631V21.08ZM24.4831 18V17.5H23.2759L24.1295 18.3536L24.4831 18ZM48.2222 41.7392L47.8687 42.0927L48.7222 42.9463V41.7392H48.2222ZM24.8889 32L24.5353 31.6464L23.6818 32.5H24.8889V32ZM29.3143 27.5746L29.6679 27.221L29.3143 26.8675L28.9608 27.221L29.3143 27.5746ZM28 32H28.5V31.5H28V32ZM28 38.2222H27.5V38.7222H28V38.2222ZM34.2222 38.2222V38.7222H34.7222V38.2222H34.2222ZM34.2222 32.4825H34.7222V32.2754L34.5758 32.1289L34.2222 32.4825ZM19.7397 17.5H17.1111V18.5H19.7397V17.5ZM17.1111 17.5C15.1083 17.5 13.5 19.1083 13.5 21.1111H14.5C14.5 19.6606 15.6606 18.5 17.1111 18.5V17.5ZM13.5 21.1111V42.8889H14.5V21.1111H13.5ZM13.5 42.8889C13.5 44.8917 15.1083 46.5 17.1111 46.5V45.5C15.6606 45.5 14.5 44.3394 14.5 42.8889H13.5ZM17.1111 46.5H45.1111V45.5H17.1111V46.5ZM45.1111 46.5C45.9673 46.5 46.7537 46.2054 47.3722 45.7102L46.7471 44.9296C46.3013 45.2866 45.7341 45.5 45.1111 45.5V46.5ZM47.4132 44.9663L45.0133 42.5664L44.3062 43.2736L46.7061 45.6734L47.4132 44.9663ZM44.6597 42.42H17.1111V43.42H44.6597V42.42ZM17.6111 42.92V21.08H16.6111V42.92H17.6111ZM17.1111 21.58H22.8197V20.58H17.1111V21.58ZM23.1733 20.7264L20.0933 17.6464L19.3862 18.3536L22.4662 21.4336L23.1733 20.7264ZM44.6111 21.08V38.6281H45.6111V21.08H44.6111ZM27.5631 21.58H45.1111V20.58H27.5631V21.58ZM24.1295 18.3536L27.2095 21.4336L27.9166 20.7264L24.8366 17.6464L24.1295 18.3536ZM45.1111 17.5H24.4831V18.5H45.1111V17.5ZM48.7222 21.1111C48.7222 19.1083 47.1139 17.5 45.1111 17.5V18.5C46.5616 18.5 47.7222 19.6606 47.7222 21.1111H48.7222ZM48.7222 41.7392V21.1111H47.7222V41.7392H48.7222ZM44.7576 38.9816L47.8687 42.0927L48.5758 41.3856L45.4647 38.2745L44.7576 38.9816ZM25.2424 32.3536L29.6679 27.9281L28.9608 27.221L24.5353 31.6464L25.2424 32.3536ZM28 31.5H24.8889V32.5H28V31.5ZM28.5 38.2222V32H27.5V38.2222H28.5ZM34.2222 37.7222H28V38.7222H34.2222V37.7222ZM33.7222 32.4825V38.2222H34.7222V32.4825H33.7222ZM34.5758 32.1289L29.6679 27.221L28.9608 27.9281L33.8687 32.836L34.5758 32.1289Z" fill="#00211D" mask="url(#path-2-outside-1_1835_76)"/>
<rect x="14.1113" y="16.3716" width="3.35402" height="46.457" transform="rotate(-45 14.1113 16.3716)" fill="#00211D"/>
</svg>
