<svg width="63" height="63" fill="none" xmlns="http://www.w3.org/2000/svg"><path d="M42 0H21C9.402 0 0 9.402 0 21v21c0 11.598 9.402 21 21 21h21c11.598 0 21-9.402 21-21V21C63 9.402 53.598 0 42 0z" fill="#41B178" fill-opacity=".1"/><path fill-rule="evenodd" clip-rule="evenodd" d="M17.086 22.457H16.2a.2.2 0 00-.2.2v19.6c0 .111.09.2.2.2h10.609l4.545 4.845a.2.2 0 00.292 0l4.545-4.844h.895l-20-20zm25.828 20H46.8a.2.2 0 00.2-.2v-19.6a.2.2 0 00-.2-.2H22.914l20 20z" fill="#00211D"/><path fill="#00211D" d="M14 16.372L16.372 14l32.85 32.85-2.372 2.372z"/></svg>