<svg width="63" height="63" fill="none" xmlns="http://www.w3.org/2000/svg"><path d="M42 0H21C9.402 0 0 9.402 0 21v21c0 11.598 9.402 21 21 21h21c11.598 0 21-9.402 21-21V21C63 9.402 53.598 0 42 0z" fill="#41B178" fill-opacity=".1"/><path fill-rule="evenodd" clip-rule="evenodd" d="M16.628 19h-1.471C12.886 19 11 20.886 11 23.157v17.828c0 2.271 1.886 4.157 4.157 4.157H42.77L37.029 39.4h-3.314a1.043 1.043 0 01-1.029-1.028c0-.557.471-1.029 1.029-1.029h1.257l-8.558-8.558a3.685 3.685 0 01-3.628 3.03 3.658 3.658 0 01-3.685-3.686 3.688 3.688 0 013.03-3.627L16.627 19zm25.143 20.4h3.17c.6 0 1.03-.472 1.03-1.03 0-.556-.472-1.028-1.03-1.028h-5.227L35.471 33.1h9.47c.6 0 1.03-.472 1.03-1.029 0-.557-.472-1.028-1.03-1.028H33.715a.99.99 0 00-.264.035L21.372 19h26.184a4.16 4.16 0 014.157 4.157v17.828c0 2.271-1.886 4.157-4.157 4.157h-.042L41.77 39.4zm-22.328-7.5c-1.458 1.371-2.4 3.6-2.4 6.128 0 2.229 11.442 2.229 11.485 0 0-2.529-.943-4.757-2.4-6.128a4.926 4.926 0 01-3.343 1.285c-1.285 0-2.442-.514-3.342-1.285zm14.27-5.057h11.229c.6 0 1.028-.472 1.028-1.029 0-.557-.471-1.029-1.028-1.029H33.714c-.557 0-1.029.472-1.029 1.03 0 .556.471 1.028 1.029 1.028z" fill="#00211D"/><path fill="#00211D" d="M17 16.372L19.372 14l32.85 32.85-2.372 2.372z"/></svg>