<svg width="63" height="63" viewBox="0 0 63 63" fill="none" xmlns="http://www.w3.org/2000/svg">
<path d="M42 0H21C9.40202 0 0 9.40202 0 21V42C0 53.598 9.40202 63 21 63H42C53.598 63 63 53.598 63 42V21C63 9.40202 53.598 0 42 0Z" fill="#41B178" fill-opacity="0.1"/>
<path d="M14 24.5C15.1667 21.5833 20.3 17.5 31.5 17.5C42.7 17.5 47.8333 22.1667 49 24.5V29.3653C49 30.4696 47.9897 31.2979 46.9068 31.0814L41.6568 30.0314C40.8389 29.8678 40.25 29.1496 40.25 28.3154V27.0762C40.25 26.5328 40.1047 25.9843 39.6293 25.7213C38.595 25.1492 36.2 24.5 31.5 24.5C26.8 24.5 24.405 25.1492 23.3707 25.7213C22.8953 25.9843 22.75 26.5328 22.75 27.0762V28.3154C22.75 29.1496 22.1611 29.8678 21.3432 30.0314L16.0932 31.0814C15.0103 31.2979 14 30.4696 14 29.3653V24.5Z" fill="#00211D"/>
<path d="M33.8464 28H29.0002L29.4502 40.1846H33.3964L33.8464 28ZM31.4233 46C32.6954 46 33.829 44.9269 33.8464 43.5769C33.829 42.2615 32.6954 41.1885 31.4233 41.1885C30.0819 41.1885 28.9829 42.2615 29.0002 43.5769C28.9829 44.9269 30.0819 46 31.4233 46Z" fill="#00211D"/>
</svg>
