<svg width="63" height="63" fill="none" xmlns="http://www.w3.org/2000/svg"><path d="M42 0H21C9.402 0 0 9.402 0 21v21c0 11.598 9.402 21 21 21h21c11.598 0 21-9.402 21-21V21C63 9.402 53.598 0 42 0z" fill="#41B178" fill-opacity=".1"/><path d="M30.888 50.006c9.003 0 16.288-7.285 16.288-16.288 0-8.37-6.334-15.293-14.479-16.198v-1.9h2.715V12h-9.049v3.62h2.715v1.9c-8.144.905-14.478 7.782-14.478 16.198 0 9.003 7.284 16.288 16.288 16.288zm0-30.767c7.963 0 14.478 6.515 14.478 14.479 0 7.963-6.515 14.478-14.478 14.478S16.409 41.68 16.409 33.718c0-7.964 6.516-14.479 14.479-14.479z" fill="#000"/><path d="M30.888 45.481A11.74 11.74 0 0042.65 33.717a11.74 11.74 0 00-11.763-11.763v11.764H19.124A11.74 11.74 0 0030.888 45.48zM42.56 15.53l-2.623 2.623a17.956 17.956 0 016.379 6.38l2.624-2.624c-1.629-2.58-3.846-4.751-6.38-6.38z" fill="#000"/></svg>