<svg width="63" height="63" fill="none" xmlns="http://www.w3.org/2000/svg"><path d="M42 0H21C9.402 0 0 9.402 0 21v21c0 11.598 9.402 21 21 21h21c11.598 0 21-9.402 21-21V21C63 9.402 53.598 0 42 0z" fill="#41B178" fill-opacity=".1"/><path fill-rule="evenodd" clip-rule="evenodd" d="M31.5 14a7 7 0 00-7 7v1.025l-7.512-7.512-2.475 2.474 31.5 31.5 2.475-2.475-5.928-5.927a13.93 13.93 0 002.832-6.839c.12-.959-.675-1.746-1.642-1.746-.966 0-1.735.79-1.894 1.743a10.442 10.442 0 01-1.797 4.341l-2.528-2.528a6.968 6.968 0 00.97-3.556V21a7 7 0 00-7-7zm.96 24.435l-7.96-7.96V31.5a7 7 0 007.96 6.935zm2.852 2.852l2.641 2.64a14.041 14.041 0 01-1.703.747c-1.66.599-3 2.043-3 3.808V49h-3.5v-.518c0-1.765-1.34-3.21-3-3.808-4.868-1.756-8.483-6.133-9.142-11.428-.12-.959.676-1.746 1.642-1.746.967 0 1.735.79 1.894 1.743.83 4.97 5.15 8.757 10.356 8.757 1.345 0 2.63-.253 3.812-.713z" fill="#00211D"/></svg>