<svg width="63" height="63" fill="none" xmlns="http://www.w3.org/2000/svg"><path d="M42 0H21C9.402 0 0 9.402 0 21v21c0 11.598 9.402 21 21 21h21c11.598 0 21-9.402 21-21V21C63 9.402 53.598 0 42 0z" fill="#41B178" fill-opacity=".1"/><rect x="31" y="15" width="2" height="5" rx=".4" fill="#00211D"/><rect x="31" y="22" width="2" height="5" rx=".4" fill="#00211D"/><rect x="31" y="29" width="2" height="5" rx=".4" fill="#00211D"/><rect x="31" y="36" width="2" height="5" rx=".4" fill="#00211D"/><rect x="31" y="43" width="2" height="5" rx=".4" fill="#00211D"/><path d="M16.75 26.737L25 31.5l-8.25 4.763v-9.526z" stroke="#000" stroke-width="2"/><path d="M37.6 31.846a.4.4 0 010-.692l10.05-5.803a.4.4 0 01.6.347v11.604a.4.4 0 01-.6.347L37.6 31.846z" fill="#00211D"/></svg>