<svg width="59" height="59" fill="none" xmlns="http://www.w3.org/2000/svg"><g clip-path="url(#clip0)"><path d="M38.85 0H19.425C8.697 0 0 8.697 0 19.425V38.85c0 10.728 8.697 19.425 19.425 19.425H38.85c10.728 0 19.425-8.697 19.425-19.425V19.425C58.275 8.697 49.578 0 38.85 0z" fill="#EBF7F1"/><path fill-rule="evenodd" clip-rule="evenodd" d="M40.222 25.064l1.894-4.19 4.134-1.896-4.134-1.894-1.894-4.134-1.895 4.134-4.191 1.894 4.191 1.895 1.895 4.191zm-11.368.747l-3.79-8.325-3.789 8.325L12.95 29.6l8.325 3.79 3.79 8.324 3.789-8.325 8.325-3.789-8.325-3.79zm11.368 8.325l-1.895 4.19-4.191 1.895 4.191 1.895 1.895 4.134 1.894-4.134 4.134-1.895-4.134-1.894-1.894-4.191z" fill="#00211D"/></g><defs><clipPath id="clip0"><path fill="#fff" d="M0 0h58.275v58.275H0z"/></clipPath></defs></svg>