<svg width="63" height="63" fill="none" xmlns="http://www.w3.org/2000/svg"><path d="M42 0H21C9.402 0 0 9.402 0 21v21c0 11.598 9.402 21 21 21h21c11.598 0 21-9.402 21-21V21C63 9.402 53.598 0 42 0z" fill="#41B178" fill-opacity=".1"/><circle cx="28.775" cy="24.887" r="6.887" fill="#00211D"/><path fill-rule="evenodd" clip-rule="evenodd" d="M42.549 39.523c0-3.329-6.167-6.027-13.774-6.027-7.608 0-13.775 2.698-13.775 6.027v6.026h27.549v-6.026zM46 19.991c-1.593 0-2.885 1.343-2.885 3v.44l-3.095-3.22L39 21.27l12.98 13.5L53 33.71l-2.443-2.54a6.1 6.1 0 001.167-2.931.672.672 0 00-.676-.749c-.398 0-.715.338-.78.747a4.573 4.573 0 01-.741 1.86l-1.042-1.083c.254-.446.4-.967.4-1.524v-4.5c0-1.657-1.292-3-2.885-3zm.396 10.472l-3.28-3.411v.44c0 1.656 1.29 3 2.884 3a2.745 2.745 0 00.396-.029zm1.175 1.223l1.088 1.131a5.715 5.715 0 01-.702.32c-.684.257-1.236.876-1.236 1.632v.222H45.28v-.222c0-.756-.552-1.375-1.236-1.632-2.006-.752-3.496-2.628-3.768-4.897a.673.673 0 01.677-.749c.398 0 .715.338.78.747.343 2.13 2.123 3.753 4.268 3.753a4.17 4.17 0 001.57-.305z" fill="#00211D"/></svg>