<svg width="48" height="48" viewBox="0 0 48 48" fill="none" xmlns="http://www.w3.org/2000/svg">
<path d="M24 0C10.7629 0 0 10.7631 0 24C0 37.2372 10.7629 48 24 48C37.2371 48 48 37.2372 48 24C48 10.7631 37.2371 0 24 0ZM24 3C35.6157 3 45 12.3843 45 24C45 35.6157 35.6157 45 24 45C12.3843 45 3 35.6157 3 24C3 12.3843 12.3843 3 24 3ZM18 15C17.2044 15 16.4413 15.3161 15.8787 15.8787C15.3161 16.4413 15 17.2044 15 18C15 18.7956 15.3161 19.5587 15.8787 20.1213C16.4413 20.6839 17.2044 21 18 21C18.7956 21 19.5587 20.6839 20.1213 20.1213C20.6839 19.5587 21 18.7956 21 18C21 17.2044 20.6839 16.4413 20.1213 15.8787C19.5587 15.3161 18.7956 15 18 15V15ZM30 15C29.2044 15 28.4413 15.3161 27.8787 15.8787C27.3161 16.4413 27 17.2044 27 18C27 18.7956 27.3161 19.5587 27.8787 20.1213C28.4413 20.6839 29.2044 21 30 21C30.7956 21 31.5587 20.6839 32.1213 20.1213C32.6839 19.5587 33 18.7956 33 18C33 17.2044 32.6839 16.4413 32.1213 15.8787C31.5587 15.3161 30.7956 15 30 15V15ZM17.8477 31.5C17.4498 31.5202 17.0763 31.6976 16.8093 31.9932C16.5423 32.2888 16.4036 32.6783 16.4238 33.0762C16.444 33.474 16.6214 33.8475 16.917 34.1145C17.2126 34.3815 17.6022 34.5202 18 34.5H30C30.1988 34.5028 30.3961 34.4661 30.5806 34.392C30.765 34.3178 30.9329 34.2078 31.0745 34.0682C31.216 33.9287 31.3284 33.7624 31.4051 33.579C31.4819 33.3956 31.5214 33.1988 31.5214 33C31.5214 32.8012 31.4819 32.6044 31.4051 32.421C31.3284 32.2376 31.216 32.0713 31.0745 31.9318C30.9329 31.7922 30.765 31.6822 30.5806 31.608C30.3961 31.5339 30.1988 31.4972 30 31.5H18C17.9493 31.4974 17.8984 31.4974 17.8477 31.5V31.5Z" fill="white"/>
</svg>
