<svg width="63" height="63" fill="none" xmlns="http://www.w3.org/2000/svg"><path d="M42 0H21C9.402 0 0 9.402 0 21v21c0 11.598 9.402 21 21 21h21c11.598 0 21-9.402 21-21V21C63 9.402 53.598 0 42 0z" fill="#41B178" fill-opacity=".1"/><rect x="10" y="20" width="44" height="24" rx="5" fill="#00211D"/><path fill-rule="evenodd" clip-rule="evenodd" d="M36.373 25.824c0-.9-.73-1.63-1.63-1.63h-5.055c-.9 0-1.63.73-1.63 1.63v5.616l-1.627 2.514h.007-.007v1.627H38v-1.627h-.007H38l-1.627-2.514v-5.616zM33.12 35.58h-1.807v4.158h-.002l.786.825a.163.163 0 00.236 0l.786-.825h.001V35.58z" fill="#FEFFFF"/></svg>