<svg width="63" height="63" viewBox="0 0 63 63" fill="none" xmlns="http://www.w3.org/2000/svg">
<path d="M42 0H21C9.40202 0 0 9.40202 0 21V42C0 53.598 9.40202 63 21 63H42C53.598 63 63 53.598 63 42V21C63 9.40202 53.598 0 42 0Z" fill="#41B178" fill-opacity="0.1"/>
<path d="M16 47.5173V37.6001L22.4 41.6001L16.3414 47.6587C16.2154 47.7847 16 47.6954 16 47.5173Z" fill="#00211D"/>
<path fill-rule="evenodd" clip-rule="evenodd" d="M21 16C18.2386 16 16 18.2386 16 21V36.6C16 39.3614 18.2386 41.6 21 41.6H43C45.7614 41.6 48 39.3614 48 36.6V21C48 18.2386 45.7614 16 43 16H21ZM38.1047 27.7488V29.6566C38.1047 30.2256 37.6398 30.6473 37.0886 30.6727C36.5399 30.6981 36.0724 30.1875 36.0724 29.6566V28.9631V26.4711L34.0479 28.4956L31.1418 31.4018L28.7386 33.8049L27.7301 34.8135C27.3288 35.2148 26.6987 35.1843 26.2923 34.8135C25.8884 34.4426 25.9163 33.7516 26.2923 33.3756L26.3101 33.3578C26.5778 33.0834 26.8511 32.8123 27.124 32.5416C27.2604 32.4064 27.3966 32.2713 27.532 32.1359L30.052 29.6159L32.9581 26.7098L34.6347 25.0332H33.3574H31.4496C30.8806 25.0332 30.4589 24.5683 30.4335 24.017C30.4081 23.4683 30.9187 23.0009 31.4496 23.0009H32.1431H35.1813H37.0889C37.332 22.9897 37.5592 23.0838 37.7367 23.2382C37.761 23.2571 37.7847 23.2771 37.8076 23.2981C37.9677 23.4452 38.06 23.6425 38.0896 23.8506C38.0988 23.9014 38.1039 23.953 38.1046 24.0048L38.1053 24.017C38.1066 24.047 38.1064 24.0767 38.1047 24.1061V24.7106V27.7488Z" fill="#00211D"/>
</svg>
