<svg width="63" height="63" fill="none" xmlns="http://www.w3.org/2000/svg"><path d="M42 0H21C9.402 0 0 9.402 0 21v21c0 11.598 9.402 21 21 21h21c11.598 0 21-9.402 21-21V21C63 9.402 53.598 0 42 0z" fill="#41B178" fill-opacity=".1"/><path fill-rule="evenodd" clip-rule="evenodd" d="M17.068 14.763c-1.757.17-3.068 1.655-3.068 3.42v10.884c0 1.765 1.312 3.249 3.068 3.42 2.44.237 6.095.538 10.07.68.512.02.991.258 1.312.657l1.685 2.1c.7.873 2.03.873 2.73 0l1.685-2.1c.32-.4.8-.638 1.312-.656 3.975-.143 7.63-.444 10.07-.681 1.756-.171 3.068-1.655 3.068-3.42V18.184c0-1.766-1.312-3.25-3.068-3.42C42.616 14.44 37.058 14 31.5 14s-11.116.441-14.432.763zm9.182 8.862a2.625 2.625 0 11-5.25 0 2.625 2.625 0 015.25 0zm7.875 0a2.625 2.625 0 11-5.25 0 2.625 2.625 0 015.25 0zm5.25 2.625a2.625 2.625 0 100-5.25 2.625 2.625 0 000 5.25z" fill="#00211D"/><path d="M43.75 42c.967 0 1.75.783 1.75 1.75v1.75H49V49H14v-3.5h3.5v-1.75c0-.967.784-1.75 1.75-1.75h24.5z" fill="#00211D"/></svg>