<svg width="63" height="63" fill="none" xmlns="http://www.w3.org/2000/svg"><path d="M42 0H21C9.402 0 0 9.402 0 21v21c0 11.598 9.402 21 21 21h21c11.598 0 21-9.402 21-21V21C63 9.402 53.598 0 42 0z" fill="#41B178" fill-opacity=".1"/><path d="M14 24.5c1.167-2.917 6.3-7 17.5-7s16.333 4.667 17.5 7v4.865a1.75 1.75 0 01-2.093 1.716l-5.25-1.05a1.75 1.75 0 01-1.407-1.716v-1.239c0-.543-.145-1.092-.62-1.355-1.035-.572-3.43-1.221-8.13-1.221-4.7 0-7.095.65-8.13 1.221-.475.263-.62.812-.62 1.355v1.24a1.75 1.75 0 01-1.407 1.715l-5.25 1.05A1.75 1.75 0 0114 29.365V24.5z" fill="#00211D"/><path d="M33.25 29.75a1.75 1.75 0 10-3.5 0v7c0 1.442-1.646 2.265-2.8 1.4a1.75 1.75 0 10-2.1 2.8l5.6 4.2a1.75 1.75 0 002.1 0l5.6-4.2a1.75 1.75 0 10-2.1-2.8c-1.154.865-2.8.042-2.8-1.4v-7z" fill="#00211D"/></svg>