<svg width="63" height="63" fill="none" xmlns="http://www.w3.org/2000/svg"><path d="M42 0H21C9.402 0 0 9.402 0 21v21c0 11.598 9.402 21 21 21h21c11.598 0 21-9.402 21-21V21C63 9.402 53.598 0 42 0z" fill="#41B178" fill-opacity=".1"/><circle cx="32" cy="32" r="19" fill="#00211D"/><path d="M32 43c6.075 0 11-4.925 11-11s-4.925-11-11-11-11 4.925-11 11 4.925 11 11 11zm0 2c-7.18 0-13-5.82-13-13s5.82-13 13-13 13 5.82 13 13-5.82 13-13 13zm-5.894-9.553a6.59 6.59 0 0011.788 0 1 1 0 10-1.788-.894 4.59 4.59 0 01-8.212 0 1 1 0 10-1.788.894zM27.5 31a1.5 1.5 0 100-3 1.5 1.5 0 000 3zm9 0a1.5 1.5 0 100-3 1.5 1.5 0 000 3z" fill="#D5E1DB"/></svg>