<svg width="63" height="63" fill="none" xmlns="http://www.w3.org/2000/svg"><path d="M42 0H21C9.402 0 0 9.402 0 21v21c0 11.598 9.402 21 21 21h21c11.598 0 21-9.402 21-21V21C63 9.402 53.598 0 42 0z" fill="#41B178" fill-opacity=".1"/><circle cx="27.818" cy="24.909" r="6.909" fill="#00211D"/><path fill-rule="evenodd" clip-rule="evenodd" d="M41.636 39.59v6.046H14v-6.045c0-3.339 6.187-6.046 13.818-6.046 7.632 0 13.818 2.707 13.818 6.046z" fill="#00211D"/><circle cx="45" cy="28" r="7" fill="#00211D"/><rect x="41.5" y="26.833" width="7" height="2.333" rx=".389" fill="#FEFFFF"/></svg>