<svg width="63" height="63" viewBox="0 0 63 63" fill="none" xmlns="http://www.w3.org/2000/svg">
<path d="M42 0H21C9.40202 0 0 9.40202 0 21V42C0 53.598 9.40202 63 21 63H42C53.598 63 63 53.598 63 42V21C63 9.40202 53.598 0 42 0Z" fill="#41B178" fill-opacity="0.1"/>
<path fill-rule="evenodd" clip-rule="evenodd" d="M42.4286 23.941C42.4286 24.0904 42.4954 24.232 42.6107 24.327L47.3893 28.2621C47.5046 28.3571 47.5714 28.4987 47.5714 28.6481V47.5C47.5714 47.7761 47.3476 48 47.0714 48H35.5714H27H15.5C15.2239 48 15 47.7761 15 47.5V28.6481C15 28.4987 15.0668 28.3571 15.1821 28.2621L30.9679 15.2617C31.1525 15.1097 31.4189 15.1097 31.6036 15.2617L36.0393 18.9147C36.3655 19.1833 36.8571 18.9513 36.8571 18.5288V17.6428C36.8571 17.3667 37.081 17.1428 37.3571 17.1428H41.9286C42.2047 17.1428 42.4286 17.3667 42.4286 17.6428V23.941ZM31.5 32C24.14 32 20.7667 34.6833 20 36.6V39.7972C20 40.5229 20.6639 41.0671 21.3755 40.9249L24.8255 40.2349C25.363 40.1274 25.75 39.6554 25.75 39.1072V38.2929C25.75 37.9358 25.8455 37.5754 26.1579 37.4026C26.8376 37.0266 28.4114 36.6 31.5 36.6C34.5886 36.6 36.1624 37.0266 36.8421 37.4026C37.1545 37.5754 37.25 37.9358 37.25 38.2929V39.1072C37.25 39.6554 37.637 40.1274 38.1745 40.2349L41.6245 40.9249C42.3361 41.0671 43 40.5229 43 39.7972V36.6C42.2333 35.0667 38.86 32 31.5 32Z" fill="#00211D"/>
</svg>
