<svg width="48" height="48" viewBox="0 0 48 48" fill="none" xmlns="http://www.w3.org/2000/svg">
<path d="M24 0C10.7629 0 0 10.7631 0 24C0 37.2372 10.7629 48 24 48C37.2371 48 48 37.2372 48 24C48 10.7631 37.2371 0 24 0ZM24 3C35.6157 3 45 12.3843 45 24C45 35.6157 35.6157 45 24 45C12.3843 45 3 35.6157 3 24C3 12.3843 12.3843 3 24 3ZM10.4766 15C10.2796 15.0031 10.0851 15.0449 9.90432 15.1231C9.7235 15.2014 9.55987 15.3144 9.42276 15.4559C9.28564 15.5974 9.17774 15.7645 9.1052 15.9476C9.03267 16.1308 8.99692 16.3265 9 16.5234C9 18.6648 10.1457 20.65 12 21.7207C13.8543 22.7911 16.1457 22.7911 18 21.7207C19.8543 20.65 21 18.6648 21 16.5234C21.0028 16.3247 20.9661 16.1273 20.892 15.9429C20.8178 15.7584 20.7078 15.5905 20.5682 15.449C20.4287 15.3074 20.2624 15.195 20.079 15.1183C19.8956 15.0416 19.6988 15.0021 19.5 15.0021C19.3012 15.0021 19.1044 15.0416 18.921 15.1183C18.7376 15.195 18.5713 15.3074 18.4318 15.449C18.2922 15.5905 18.1822 15.7584 18.108 15.9429C18.0339 16.1273 17.9972 16.3247 18 16.5234C18 17.5977 17.4303 18.5818 16.5 19.1191C15.5697 19.6561 14.4303 19.6561 13.5 19.1191C12.5697 18.5818 12 17.5977 12 16.5234C12.0031 16.3225 11.9659 16.123 11.8904 15.9367C11.815 15.7505 11.7029 15.5813 11.5608 15.4392C11.4187 15.2971 11.2495 15.185 11.0633 15.1096C10.877 15.0341 10.6775 14.9969 10.4766 15ZM28.4766 15C28.2796 15.0031 28.0851 15.0449 27.9043 15.1231C27.7235 15.2014 27.5599 15.3144 27.4228 15.4559C27.2856 15.5974 27.1777 15.7645 27.1052 15.9476C27.0327 16.1308 26.9969 16.3265 27 16.5234C27 18.6648 28.1457 20.65 30 21.7207C31.8543 22.7911 34.1457 22.7911 36 21.7207C37.8543 20.65 39 18.6648 39 16.5234C39.0028 16.3247 38.9661 16.1273 38.892 15.9429C38.8178 15.7584 38.7078 15.5905 38.5682 15.449C38.4287 15.3074 38.2624 15.195 38.079 15.1183C37.8956 15.0416 37.6988 15.0021 37.5 15.0021C37.3012 15.0021 37.1044 15.0416 36.921 15.1183C36.7376 15.195 36.5713 15.3074 36.4318 15.449C36.2922 15.5905 36.1822 15.7584 36.108 15.9429C36.0339 16.1273 35.9972 16.3247 36 16.5234C36 17.5977 35.4303 18.5818 34.5 19.1191C33.5697 19.6561 32.4303 19.6561 31.5 19.1191C30.5697 18.5818 30 17.5977 30 16.5234C30.0031 16.3225 29.9659 16.123 29.8904 15.9367C29.815 15.7505 29.7029 15.5813 29.5608 15.4392C29.4187 15.2971 29.2495 15.185 29.0633 15.1096C28.877 15.0341 28.6775 14.9969 28.4766 15ZM24.0117 27C18.7247 26.9979 13.8199 29.7872 11.1152 34.3301C11.0047 34.4996 10.9295 34.6897 10.8944 34.889C10.8592 35.0883 10.8647 35.2927 10.9106 35.4898C10.9565 35.6869 11.0418 35.8727 11.1614 36.036C11.2809 36.1992 11.4323 36.3366 11.6064 36.4399C11.7804 36.5431 11.9736 36.6101 12.1742 36.6367C12.3748 36.6634 12.5788 36.6492 12.7737 36.5949C12.9687 36.5407 13.1507 36.4476 13.3087 36.3212C13.4668 36.1948 13.5976 36.0377 13.6934 35.8594C15.8591 32.2216 19.778 29.9985 24.0117 30C28.2454 30.0015 32.1554 32.2315 34.3184 35.8711C34.4167 36.042 34.5478 36.1919 34.7042 36.3122C34.8605 36.4324 35.0391 36.5206 35.2295 36.5718C35.42 36.6229 35.6187 36.636 35.8143 36.6103C36.0098 36.5846 36.1984 36.5205 36.3691 36.4219C36.5429 36.3216 36.6947 36.1875 36.8157 36.0275C36.9367 35.8675 37.0244 35.6848 37.0736 35.4903C37.1227 35.2958 37.1324 35.0935 37.102 34.8952C37.0716 34.6969 37.0017 34.5067 36.8965 34.3359C34.1953 29.7909 29.2988 27.0021 24.0117 27Z" fill="white"/>
</svg>
