<svg width="63" height="63" viewBox="0 0 63 63" fill="none" xmlns="http://www.w3.org/2000/svg">
<path d="M42 0H21C9.40202 0 0 9.40202 0 21V42C0 53.598 9.40202 63 21 63H42C53.598 63 63 53.598 63 42V21C63 9.40202 53.598 0 42 0Z" fill="#41B178" fill-opacity="0.1"/>
<rect x="15.4524" y="18.4524" width="32.0952" height="26.0952" rx="3.38889" stroke="#00211D" stroke-width="2.90476"/>
<circle cx="31.5185" cy="30.1591" r="5.15909" fill="#00211D"/>
<path fill-rule="evenodd" clip-rule="evenodd" d="M41.8366 41.1221V45.6363H31.5509C31.5401 45.6363 31.5292 45.6363 31.5184 45.6363C31.5075 45.6363 31.4967 45.6363 31.4859 45.6363H21.2002V41.1221C21.2002 41.1221 21.2002 41.1221 21.2002 41.1221C21.2002 38.629 25.8198 36.6079 31.5184 36.6079C37.2169 36.6079 41.8365 38.629 41.8366 41.1221C41.8366 41.1221 41.8366 41.1221 41.8366 41.1221Z" fill="#00211D"/>
</svg>
