<svg width="63" height="63" fill="none" xmlns="http://www.w3.org/2000/svg"><path d="M42 0H21C9.402 0 0 9.402 0 21v21c0 11.598 9.402 21 21 21h21c11.598 0 21-9.402 21-21V21C63 9.402 53.598 0 42 0z" fill="#41B178" fill-opacity=".1"/><path d="M40.613 26.263c.44.132.877.29 1.3.469a1.066 1.066 0 00.83-1.963 14.703 14.703 0 00-1.52-.547 1.072 1.072 0 00-1.325.716 1.06 1.06 0 00.716 1.326zM37.27 50.866l-.257.003c-.8 0-1.6-.076-2.38-.225a1.066 1.066 0 00-.403 2.092c.911.175 1.846.263 2.78.263h.047c.079 0 .157 0 .233-.003a1.067 1.067 0 001.045-1.086 1.07 1.07 0 00-1.065-1.044zm-11.02-6.075a1.07 1.07 0 00-1.463-.36c-.243.146-.415.38-.483.655-.068.277-.025.563.123.807a14.77 14.77 0 001.853 2.45c.201.213.485.336.778.336a1.061 1.061 0 001.065-1.03 1.06 1.06 0 00-.287-.763 12.61 12.61 0 01-1.586-2.095zm5.87 5.089a12.561 12.561 0 01-2.298-1.272 1.066 1.066 0 00-1.222 1.746 14.74 14.74 0 002.69 1.489 1.066 1.066 0 00.83-1.963zm15.537-18.863a1.06 1.06 0 00.122.806 12.5 12.5 0 011.113 2.379 1.066 1.066 0 002.013-.697 14.688 14.688 0 00-1.302-2.782 1.064 1.064 0 00-1.946.294zm3.941 5.482a1.067 1.067 0 00-2.116.26 12.7 12.7 0 01.049 2.628c-.025.283.063.56.246.777a1.056 1.056 0 00.816.38c.558 0 1.013-.42 1.06-.975a14.935 14.935 0 00-.055-3.07zm-1.234 4.757a1.06 1.06 0 00-1.329.71 12.472 12.472 0 01-1.025 2.417 1.066 1.066 0 001.865 1.033c.497-.898.9-1.85 1.199-2.83a1.07 1.07 0 00-.71-1.33zm-3.055 4.913c-.31 0-.602.134-.804.367a12.665 12.665 0 01-1.92 1.795 1.058 1.058 0 00-.413.703 1.06 1.06 0 00.206.79 1.071 1.071 0 001.492.206 14.776 14.776 0 002.243-2.097c.187-.215.279-.49.258-.774a1.065 1.065 0 00-1.063-.99zm-4.519 3.418a1.08 1.08 0 00-.453.1c-.792.373-1.627.661-2.48.858a1.059 1.059 0 00-.663.474 1.053 1.053 0 00-.134.804 1.06 1.06 0 001.278.798c.997-.23 1.974-.568 2.904-1.004.258-.12.453-.334.55-.602a1.059 1.059 0 00-.037-.814 1.07 1.07 0 00-.965-.614zm3.404-19.86a1.067 1.067 0 001.505.051c.43-.4.453-1.076.052-1.506-.7-.748-1.48-1.425-2.32-2.013a1.069 1.069 0 00-1.484.262 1.067 1.067 0 00.263 1.484 12.673 12.673 0 011.983 1.722zM25.128 42.391a12.62 12.62 0 01-.376-1.329 1.06 1.06 0 00-.51-.692c.247.013.496.02.747.02 8.103 0 14.695-6.593 14.695-14.695a14.25 14.25 0 00-.042-1.055C39.095 16.99 32.661 11 24.99 11c-8.102 0-14.694 6.592-14.694 14.695 0 7.55 5.725 13.786 13.062 14.601a1.054 1.054 0 00-.684 1.232c.12.53.267 1.053.44 1.555a1.066 1.066 0 102.015-.692zm-.139-29.26c6.145 0 11.384 4.472 12.388 10.484a13.66 13.66 0 00-.364-.005c-7.99 0-14.513 6.411-14.691 14.36a12.532 12.532 0 01-9.897-12.275c0-6.928 5.636-12.564 12.564-12.564zm0 25.127c-.172 0-.351-.005-.54-.014.032-6.9 5.656-12.504 12.564-12.504.17 0 .346.005.54.014-.032 6.9-5.656 12.504-12.564 12.504z" fill="#000"/></svg>