<svg width="63" height="63" fill="none" xmlns="http://www.w3.org/2000/svg"><path d="M42 0H21C9.402 0 0 9.402 0 21v21c0 11.598 9.402 21 21 21h21c11.598 0 21-9.402 21-21V21C63 9.402 53.598 0 42 0z" fill="#41B178" fill-opacity=".1"/><path d="M14.513 16.988l31.5 31.5 2.475-2.475-8.238-8.238v-.19a1.75 1.75 0 012.4-1.625l3.95 1.58a1.75 1.75 0 002.4-1.625v-8.83a1.75 1.75 0 00-2.4-1.625l-3.95 1.58a1.75 1.75 0 01-2.4-1.625v-1.892c0-1.507-.968-2.835-2.44-3.158-2.277-.5-6.02-1.115-10.685-1.115-1.877 0-3.605.1-5.149.251l-4.988-4.988-2.475 2.475zm20.022 23.521c.99.99.469 2.667-.921 2.84-1.859.233-4.048.4-6.489.4-4.664 0-8.408-.613-10.685-1.114-1.471-.323-2.44-1.652-2.44-3.158V23.522c0-.385.063-.759.182-1.107.3-.876 1.409-.85 2.063-.195l18.29 18.289z" fill="#00211D"/></svg>